<?xml version="1.0" standalone="no"?><svg xmlns="http://www.w3.org/2000/svg" viewBox="0 0 1440 320"><path fill="#43b692" fill-opacity="1" d="M0,224L26.7,192C53.3,160,107,96,160,90.7C213.3,85,267,139,320,170.7C373.3,203,427,213,480,192C533.3,171,587,117,640,128C693.3,139,747,213,800,224C853.3,235,907,181,960,144C1013.3,107,1067,85,1120,96C1173.3,107,1227,149,1280,154.7C1333.3,160,1387,128,1413,112L1440,96L1440,0L1413.3,0C1386.7,0,1333,0,1280,0C1226.7,0,1173,0,1120,0C1066.7,0,1013,0,960,0C906.7,0,853,0,800,0C746.7,0,693,0,640,0C586.7,0,533,0,480,0C426.7,0,373,0,320,0C266.7,0,213,0,160,0C106.7,0,53,0,27,0L0,0Z"></path></svg>